:SAMPLES-PER-SECOND 30
:FULLY-SPECIFIED
:DEGREES
1138
root  79.9578 38.9414 -15.1027 -0.677109 -55.586 7.71179
RightUpLeg  -21.3415 -16.7852 -2.72074
RightLeg  14.3206 -5.78427 -0.920262
RightFoot  -3.05241 0.0111847 -0.439387
RightToes  -8.14909e-010 0 -3.6325e-017
Spine  10.3952 2.09679 -3.8845
Spine1  6.87729 0.822556 4.63704
HEad  -12.0475 62.1303 -3.6554
LeftShoulder1  0.321176 2.39704 -22.889
LeftArm  -27.7192 -5.90621 -35.9302
LeftForeArm  55.3706 -54.5138 -11.2144
LeftHand  -0.0281306 7.42117 0.619823
RightShoulder  -0.159553 -4.00875 23.534
RightArm  8.42747 -5.16313 45.0034
RightForeArm  22.5397 27.9037 4.79928
RightHand  0.156816 -0.432595 3.5349
LeftUpLeg  -5.62339 6.87205 0.486284
LeftLeg  5.18935 13.7724 -0.817158
LeftFoot  -4.11109 0.207446 -2.90238
LeftToes  1.648e-009 -9.21574e-011 2.55256e-011
1139
root  79.3485 38.9419 -15.0485 -1.10275 -56.5415 7.04773
RightUpLeg  -19.6371 -16.0513 -2.24099
RightLeg  14.6049 -5.3252 -0.796837
RightFoot  -3.46823 0.0573417 -1.17906
RightToes  -8.14909e-010 0 -3.6325e-017
Spine  10.1615 1.55928 -2.68687
Spine1  7.61588 0.0542031 5.49369
HEad  -12.8423 62.8209 -4.89268
LeftShoulder1  0.117379 3.12517 -24.1719
LeftArm  -29.3754 -6.18918 -35.5803
LeftForeArm  55.4327 -53.4072 -10.6882
LeftHand  -0.0323251 6.35538 0.267913
RightShoulder  0.0230056 -3.4058 22.8288
RightArm  7.73406 -5.58618 45.2925
RightForeArm  20.9716 27.3689 4.76461
RightHand  0.166846 1.40332 3.3485
LeftUpLeg  -3.80183 7.47978 1.6632
LeftLeg  5.74895 13.9567 -0.544859
LeftFoot  -5.00952 0.248133 -3.92824
LeftToes  1.648e-009 -9.21574e-011 2.55256e-011
1140
root  78.6951 38.8779 -15.051 -1.42712 -57.6115 6.59406
RightUpLeg  -18.6718 -15.731 -1.55113
RightLeg  15.7423 -4.48353 -0.746638
RightFoot  -4.26143 0.0960703 -2.00951
RightToes  -8.14909e-010 0 -3.6325e-017
Spine  10.8819 1.14244 -0.250874
Spine1  6.24487 0.21859 3.88779
HEad  -9.56438 63.0473 -0.967392
LeftShoulder1  0.241945 2.64101 -22.4047
LeftArm  -30.8815 -5.10569 -36.2779
LeftForeArm  55.1211 -52.258 -10.2023
LeftHand  -0.0302224 6.84027 0.522323
RightShoulder  -0.139152 -3.89612 25.103
RightArm  9.42531 -6.01356 43.5653
RightForeArm  16.9765 27.3616 4.98129
RightHand  -0.114979 3.31221 -1.89538
LeftUpLeg  -2.62313 8.59883 2.86127
LeftLeg  7.13947 13.6675 -0.215596
LeftFoot  -6.11512 0.247706 -4.64936
LeftToes  1.648e-009 -9.21574e-011 2.55256e-011
1141
root  78.0612 38.7209 -15.063 -0.968445 -59.0304 5.46704
RightUpLeg  -18.1971 -15.0974 -0.501629
RightLeg  17.43 -3.6266 -0.582882
RightFoot  -5.90046 0.0637736 -2.19951
RightToes  -8.14909e-010 0 -3.6325e-017
Spine  9.98663 1.61502 2.04426
Spine1  7.10734 0.951529 3.63236
HEad  -8.74162 62.1043 0.241364
LeftShoulder1  0.469492 1.75327 -20.5506
LeftArm  -32.0921 -5.64858 -37.8901
LeftForeArm  54.8941 -50.7039 -9.56712
LeftHand  -0.0301023 6.7284 0.499454
RightShoulder  -0.506223 -4.99449 26.8982
RightArm  10.282 -5.8295 41.7736
RightForeArm  19.1549 27.1565 4.81612
RightHand  0.0895662 0.64835 1.84167
LeftUpLeg  -2.9327 11.2576 4.05889
LeftLeg  11.0376 12.073 1.45428
LeftFoot  -7.93839 0.22295 -5.93865
LeftToes  1.648e-009 -9.21574e-011 2.55256e-011
1142
root  77.4728 38.5084 -15.1086 -0.168167 -60.0783 3.76343
RightUpLeg  -17.8099 -14.9852 0.833176
RightLeg  19.6505 -2.72278 -0.48858
RightFoot  -7.79221 0.0308666 -2.67821
RightToes  -8.14909e-010 0 -3.6325e-017
Spine  10.4206 1.44078 2.578
Spine1  6.77068 0.132966 6.68916
HEad  -10.5437 62.1411 -2.34315
LeftShoulder1  0.184185 2.88773 -23.0982
LeftArm  -32.4287 -7.13752 -35.8851
LeftForeArm  53.6035 -49.2237 -9.07049
LeftHand  -0.0307789 6.05774 0.343606
RightShoulder  -0.0785855 -3.74534 24.1765
RightArm  8.91088 -7.42982 43.2939
RightForeArm  21.6948 26.9217 4.62551
RightHand  0.119439 -0.644954 3.60925
LeftUpLeg  -4.71684 12.5887 5.28184
LeftLeg  17.7958 10.8706 4.30191
LeftFoot  -8.96884 0.217826 -7.56497
LeftToes  1.648e-009 -9.21574e-011 2.55256e-011
1143
root  76.928 38.3462 -15.2035 0.451553 -61.29 2.17078
RightUpLeg  -16.9734 -14.0712 2.03679
RightLeg  21.0333 -2.57042 -0.562888
RightFoot  -9.25493 -0.00869094 -2.99289
RightToes  -8.14909e-010 0 -3.6325e-017
Spine  11.1373 1.60308 4.4032
Spine1  6.69653 0.557252 6.67028
HEad  -11.048 61.4306 -1.94159
LeftShoulder1  0.296921 2.44271 -21.8996
LeftArm  -33.8438 -8.06251 -36.6017
LeftForeArm  53.4794 -47.9609 -8.61011
LeftHand  -0.0288021 5.68156 0.524304
RightShoulder  -0.172092 -4.02225 24.803
RightArm  9.7766 -6.74409 42.4768
RightForeArm  17.803 26.146 4.66491
RightHand  0.0872264 2.91785 1.38096
LeftUpLeg  -7.65642 9.33475 6.62593
LeftLeg  26.7562 12.9703 7.37333
LeftFoot  -7.47318 0.255859 -7.15624
LeftToes  1.648e-009 -9.21574e-011 2.55256e-011
1144
root  76.373 38.2404 -15.2531 0.411194 -62.2714 1.31757
RightUpLeg  -15.768 -13.8922 2.65159
RightLeg  21.9839 -2.0335 -0.266901
RightFoot  -10.6061 -0.0490689 -3.38377
RightToes  -8.14909e-010 0 -3.6325e-017
Spine  10.9048 1.46914 6.57302
Spine1  8.00471 0.979471 5.2451
HEad  -12.6716 61.5223 -2.39847
LeftShoulder1  0.456303 1.79079 -20.1057
LeftArm  -35.4306 -8.9377 -37.5793
LeftForeArm  53.4035 -47.0204 -8.28379
LeftHand  -0.0278811 5.97426 0.628127
RightShoulder  -0.308731 -4.42182 26.2261
RightArm  10.7916 -5.39243 41.8288
RightForeArm  20.8829 25.0535 4.26153
RightHand  0.346673 0.458578 6.66607
LeftUpLeg  -11.029 5.51773 7.0878
LeftLeg  35.1352 11.4923 8.79343
LeftFoot  -4.6458 0.142453 -1.71885
LeftToes  1.648e-009 -9.21574e-011 2.55256e-011
1145
root  75.8285 38.1507 -15.2634 0.889236 -63.3513 0.390442
RightUpLeg  -14.7828 -12.8789 3.11903
RightLeg  22.5292 -2.12033 0.0784436
RightFoot  -11.8555 -0.0942765 -3.11671
RightToes  -8.14909e-010 0 -3.6325e-017
Spine  10.6144 1.2326 7.60657
Spine1  8.82844 0.735867 5.73138
HEad  -12.8736 62.0693 -2.61935
LeftShoulder1  0.339736 2.24915 -20.6405
LeftArm  -36.3773 -10.114 -36.9113
LeftForeArm  53.3525 -46.1588 -7.99092
LeftHand  -0.0287215 5.2277 0.219281
RightShoulder  -0.075533 -3.71524 25.041
RightArm  10.5834 -4.89825 43.0803
RightForeArm  19.7141 23.7669 4.05025
RightHand  0.187541 0.43697 3.64726
LeftUpLeg  -14.2765 1.88018 7.38953
LeftLeg  40.1586 4.36424 4.32257
LeftFoot  -5.47371 0.176316 -2.84163
LeftToes  1.648e-009 -9.21574e-011 2.55256e-011
